<svg width="16" height="16" viewBox="0 0 16 16" fill="none" xmlns="http://www.w3.org/2000/svg">
<path d="M10.1332 10.5382C10.4296 10.6864 10.79 10.5663 10.9382 10.2699C11.0864 9.9735 10.9663 9.6131 10.6699 9.46491L10.1332 10.5382ZM8.00156 8.80156H7.40156C7.40156 9.02883 7.52996 9.23658 7.73323 9.33822L8.00156 8.80156ZM8.60156 4.40156C8.60156 4.07019 8.33293 3.80156 8.00156 3.80156C7.67019 3.80156 7.40156 4.07019 7.40156 4.40156H8.60156ZM10.6699 9.46491L8.26989 8.26491L7.73323 9.33822L10.1332 10.5382L10.6699 9.46491ZM8.60156 8.80156V4.40156H7.40156V8.80156H8.60156ZM13.8016 8.00156C13.8016 11.2048 11.2048 13.8016 8.00156 13.8016V15.0016C11.8676 15.0016 15.0016 11.8676 15.0016 8.00156H13.8016ZM8.00156 13.8016C4.79831 13.8016 2.20156 11.2048 2.20156 8.00156H1.00156C1.00156 11.8676 4.13557 15.0016 8.00156 15.0016V13.8016ZM2.20156 8.00156C2.20156 4.79831 4.79831 2.20156 8.00156 2.20156V1.00156C4.13557 1.00156 1.00156 4.13557 1.00156 8.00156H2.20156ZM8.00156 2.20156C11.2048 2.20156 13.8016 4.79831 13.8016 8.00156H15.0016C15.0016 4.13557 11.8676 1.00156 8.00156 1.00156V2.20156Z" fill="#0A0D12"/>
</svg>
