<svg width="28" height="28" viewBox="0 0 28 28" fill="none" xmlns="http://www.w3.org/2000/svg">
<path d="M24.5 9.33203V13.9987H22.1667V10.4987H16.3333V4.66536H5.83333V23.332H12.8333V25.6654H4.6585C4.35145 25.6654 4.05696 25.5435 3.83973 25.3265C3.6225 25.1095 3.50031 24.8151 3.5 24.508V3.48936C3.5 2.86286 4.02383 2.33203 4.669 2.33203H17.4965L24.5 9.33203ZM16.0837 17.8802C16.1292 17.032 16.7837 16.3414 17.6283 16.2515L18.6433 16.1442C18.7643 16.1311 18.8781 16.0805 18.9688 15.9995L19.7283 15.317C20.034 15.0416 20.428 14.8844 20.8393 14.8737C21.2506 14.863 21.6523 14.9995 21.9718 15.2587L22.7675 15.9004C22.8608 15.9762 22.9775 16.0205 23.0988 16.0275L24.1185 16.0824C24.9667 16.1279 25.6573 16.7824 25.7472 17.627L25.8545 18.642C25.8676 18.763 25.9182 18.8768 25.9992 18.9675L26.6817 19.727C27.2498 20.3594 27.2743 21.3102 26.74 21.9705L26.0983 22.7662C26.0226 22.8608 25.9781 22.9766 25.9712 23.0975L25.9163 24.1172C25.8952 24.5282 25.728 24.9182 25.4448 25.2168C25.1615 25.5154 24.781 25.703 24.3717 25.7459L23.3567 25.8532C23.2357 25.8663 23.1219 25.9169 23.0312 25.9979L22.2717 26.6804C21.966 26.9558 21.572 27.113 21.1607 27.1237C20.7494 27.1344 20.3477 26.9979 20.0282 26.7387L19.2325 26.097C19.1379 26.0213 19.0221 25.9768 18.9012 25.9699L17.8815 25.915C17.4705 25.8939 17.0805 25.7267 16.7819 25.4435C16.4833 25.1602 16.2957 24.7797 16.2528 24.3704L16.1455 23.3554C16.1324 23.2344 16.0818 23.1206 16.0008 23.0299L15.3183 22.2704C15.0429 21.9647 14.8857 21.5707 14.875 21.1594C14.8643 20.7481 15.0008 20.3464 15.26 20.0269L15.9017 19.2312C15.9774 19.1366 16.0219 19.0208 16.0288 18.8999L16.0837 17.8802ZM24.535 19.867L23.2983 18.6304L20.4167 21.512L18.7017 19.797L17.465 21.0337L20.4167 23.9854L24.535 19.867Z" fill="#0A0D12"/>
</svg>
