<svg width="28" height="28" viewBox="0 0 28 28" fill="none" xmlns="http://www.w3.org/2000/svg">
<g clip-path="url(#clip0_2218_3135)">
<path d="M23.8647 4.13595L26.7977 4.7222C26.9552 4.7537 27.0848 4.8692 27.1303 5.02495C27.1532 5.10061 27.1553 5.18108 27.1362 5.2578C27.1171 5.33453 27.0775 5.40465 27.0218 5.4607L24.619 7.8652C24.3311 8.15149 23.9418 8.3125 23.5358 8.3132H21.5425L16.5375 13.3199C16.633 13.6805 16.6505 14.0572 16.589 14.4251C16.5275 14.7929 16.3883 15.1435 16.1806 15.4533C15.973 15.7631 15.7017 16.0252 15.3849 16.2219C15.0681 16.4187 14.7129 16.5457 14.3432 16.5945C13.9734 16.6432 13.5975 16.6126 13.2405 16.5047C12.8834 16.3968 12.5535 16.214 12.2727 15.9686C11.9918 15.7232 11.7665 15.4207 11.6117 15.0814C11.4569 14.7421 11.3762 14.3737 11.375 14.0007C11.3749 13.5979 11.4675 13.2005 11.6457 12.8392C11.8238 12.4779 12.0827 12.1625 12.4023 11.9173C12.7219 11.6722 13.0937 11.5038 13.4888 11.4254C13.8839 11.347 14.2917 11.3605 14.6807 11.4649L19.6875 6.45645V4.4667C19.6875 4.0607 19.8485 3.67045 20.1355 3.38345L22.54 0.978947C22.596 0.923172 22.6662 0.88363 22.7429 0.864525C22.8196 0.84542 22.9001 0.847466 22.9757 0.870447C23.1315 0.915947 23.247 1.04545 23.2785 1.20295L23.8647 4.13595Z" fill="#0A0D12"/>
<path d="M3.50216 14.0014C3.50396 15.5028 3.82774 16.9864 4.45165 18.352C5.07557 19.7177 5.98512 20.9337 7.11893 21.9179C8.25275 22.9022 9.58447 23.6318 11.0242 24.0577C12.464 24.4835 13.9784 24.5956 15.4652 24.3864C16.952 24.1772 18.3766 23.6515 19.643 22.8449C20.9093 22.0383 21.988 20.9695 22.8062 19.7106C23.6244 18.4517 24.163 17.0319 24.3859 15.5471C24.6087 14.0623 24.5105 12.547 24.0979 11.1034C24.04 10.9347 24.017 10.756 24.0303 10.5782C24.0436 10.4004 24.093 10.2271 24.1755 10.069C24.2579 9.91082 24.3716 9.77111 24.5098 9.65834C24.6479 9.54557 24.8076 9.46209 24.979 9.41299C25.1505 9.36389 25.3301 9.35019 25.507 9.37273C25.6839 9.39527 25.8544 9.45358 26.008 9.5441C26.1617 9.63462 26.2953 9.75547 26.4007 9.89928C26.5062 10.0431 26.5813 10.2069 26.6214 10.3806C27.4203 13.1763 27.2686 16.1581 26.19 18.8582C25.1113 21.5583 23.1669 23.824 20.6616 25.2997C18.1564 26.7755 15.2321 27.3778 12.3476 27.0123C9.46311 26.6467 6.78156 25.3339 4.72366 23.2799C2.66801 21.2225 1.35382 18.5407 0.987419 15.6555C0.621018 12.7703 1.22316 9.84513 2.6993 7.33924C4.17544 4.83334 6.442 2.88862 9.1431 1.8104C11.8442 0.732192 14.8269 0.581542 17.6229 1.38211C17.9558 1.47943 18.2367 1.70458 18.4041 2.00835C18.5715 2.31212 18.6119 2.66982 18.5164 3.00327C18.4209 3.33672 18.1973 3.6188 17.8945 3.78789C17.5916 3.95697 17.2341 3.99929 16.9002 3.90561C15.3367 3.45664 13.6902 3.37709 12.0907 3.67321C10.4912 3.96933 8.98239 4.63304 7.68325 5.61198C6.3841 6.59092 5.33018 7.85832 4.60459 9.31421C3.879 10.7701 3.5016 12.3747 3.50216 14.0014Z" fill="#0A0D12"/>
<path d="M8.75084 13.9995C8.75094 14.9561 9.0122 15.8944 9.50642 16.7134C10.0007 17.5324 10.7091 18.2008 11.5553 18.6467C12.4016 19.0926 13.3535 19.299 14.3084 19.2437C15.2634 19.1883 16.1851 18.8733 16.9741 18.3325C17.763 17.7905 18.3887 17.043 18.7835 16.1711C19.1783 15.2991 19.3272 14.3358 19.2141 13.3853C19.1835 13.1547 19.2149 12.92 19.3052 12.7056C19.3954 12.4911 19.5412 12.3046 19.7275 12.1652C19.9137 12.0258 20.1338 11.9385 20.365 11.9125C20.5962 11.8864 20.8302 11.9224 21.0428 12.0168C21.2554 12.11 21.4395 12.2579 21.5763 12.4454C21.7132 12.6329 21.7978 12.8534 21.8216 13.0843C22.0117 14.7085 21.6916 16.3516 20.9055 17.7855C20.1194 19.2194 18.9065 20.3731 17.4349 21.0864C15.9634 21.7997 14.3064 22.0372 12.6938 21.7659C11.0811 21.4947 9.59296 20.7281 8.43577 19.5727C7.27859 18.4173 6.50979 16.9303 6.23609 15.3181C5.9624 13.7059 6.19737 12.0484 6.90841 10.5758C7.61945 9.10325 8.77128 7.88853 10.204 7.10029C11.6368 6.31204 13.2794 5.98936 14.9038 6.17705C15.0778 6.19319 15.2467 6.24389 15.4008 6.32617C15.5549 6.40846 15.6911 6.52068 15.8012 6.65626C15.9114 6.79184 15.9934 6.94804 16.0424 7.11571C16.0914 7.28338 16.1064 7.45915 16.0866 7.63272C16.0668 7.80628 16.0126 7.97414 15.927 8.12647C15.8415 8.27879 15.7265 8.41251 15.5886 8.51979C15.4507 8.62707 15.2928 8.70574 15.1242 8.75121C14.9555 8.79667 14.7794 8.808 14.6063 8.78455C13.8707 8.69914 13.1254 8.77032 12.4193 8.99341C11.7131 9.2165 11.0622 9.58646 10.5091 10.079C9.95613 10.5715 9.51357 11.1754 9.21053 11.8511C8.90749 12.5268 8.75083 13.259 8.75084 13.9995Z" fill="#0A0D12"/>
</g>
<defs>
<clipPath id="clip0_2218_3135">
<rect width="28" height="28" fill="white"/>
</clipPath>
</defs>
</svg>
