<svg width="36" height="36" viewBox="0 0 36 36" fill="none" xmlns="http://www.w3.org/2000/svg">
<path d="M33.5194 5.89844H2.48491C1.28512 5.89844 0.3125 6.87106 0.3125 8.07085V27.9329C0.3125 29.1327 1.28512 30.1053 2.48491 30.1053H33.5194C34.7192 30.1053 35.6918 29.1327 35.6918 27.9329V8.07085C35.6918 6.87106 34.7192 5.89844 33.5194 5.89844Z" fill="white"/>
<path d="M21.296 23.5736H14.8712V12.113H21.296V23.5736Z" fill="#FF5F00"/>
<path d="M15.2829 17.8424C15.2829 15.5176 16.3796 13.4466 18.0874 12.1121C16.8385 11.1362 15.2624 10.5537 13.5494 10.5537C9.49427 10.5537 6.20703 13.8169 6.20703 17.8424C6.20703 21.8678 9.49427 25.1311 13.5494 25.1311C15.2624 25.1311 16.8385 24.5486 18.0874 23.5727C16.3796 22.2381 15.2829 20.1672 15.2829 17.8424Z" fill="#EB001B"/>
<path d="M29.9589 17.8424C29.9589 21.8678 26.6717 25.1311 22.6165 25.1311C20.9036 25.1311 19.3274 24.5486 18.0781 23.5727C19.7864 22.2381 20.883 20.1672 20.883 17.8424C20.883 15.5176 19.7864 13.4466 18.0781 12.1121C19.3274 11.1362 20.9036 10.5537 22.6165 10.5537C26.6717 10.5537 29.9589 13.8169 29.9589 17.8424Z" fill="#F79E1B"/>
</svg>
