<svg width="36" height="36" viewBox="0 0 36 36" fill="none" xmlns="http://www.w3.org/2000/svg">
<g clip-path="url(#clip0_2218_12374)">
<path d="M1.84615 6.46094H34.1539C35.1739 6.46094 36 7.28709 36 8.30709V27.6917C36 28.7117 35.1739 29.5379 34.1539 29.5379H1.84615C0.826154 29.5379 0 28.7117 0 27.6917V8.30709C0 7.28709 0.826154 6.46094 1.84615 6.46094Z" fill="white"/>
<path d="M25.1133 17.5615V22.5461H27.8825V19.5923H31.021C32.341 19.5831 33.4625 18.7384 33.8871 17.5615H25.1133Z" fill="#37A72E"/>
<path d="M24.7422 13.4536C24.9037 15.489 26.833 17.0998 29.1868 17.0998C29.196 17.0998 34.0007 17.0998 34.0007 17.0998C34.0376 16.9152 34.056 16.7213 34.056 16.5228C34.056 14.8336 32.6945 13.4675 31.0099 13.4536H24.7422Z" fill="url(#paint0_linear_2218_12374)"/>
<path d="M20.6466 17.0492C20.679 16.9938 20.7297 16.9615 20.7943 16.9615C20.8866 16.9615 20.9559 17.0354 20.9605 17.1231V22.5H23.7297V13.4538H20.9605C20.6097 13.4677 20.2128 13.7215 20.0651 14.04L17.8636 18.7662C17.859 18.7846 17.8497 18.8031 17.8405 18.8215C17.8082 18.8677 17.7528 18.9 17.6882 18.9C17.5866 18.9 17.5036 18.8169 17.5036 18.7154V13.4538H14.7343V22.5H17.5036C17.8497 22.4815 18.2374 22.2277 18.3851 21.9138L20.6466 17.0631C20.642 17.0585 20.6466 17.0538 20.6466 17.0492Z" fill="#37A72E"/>
<path d="M10.3077 17.2061L8.68768 22.5H6.69383L5.07845 17.2015C5.0646 17.1184 4.99076 17.0538 4.89845 17.0538C4.79691 17.0538 4.71845 17.1369 4.71845 17.2338V22.4954H1.94922V13.4492H5.0323C5.53999 13.4492 6.07537 13.8461 6.22307 14.3308L7.57076 18.7385C7.63999 18.96 7.74614 18.9554 7.81537 18.7385L9.16307 14.3308C9.31076 13.8415 9.84614 13.4492 10.3538 13.4492H13.4369V22.4954H10.6677V17.2338C10.6677 17.2338 10.6677 17.2338 10.6677 17.2292C10.6677 17.1277 10.5846 17.0492 10.4877 17.0492C10.3954 17.0538 10.3215 17.1184 10.3077 17.2061Z" fill="#37A72E"/>
</g>
<defs>
<linearGradient id="paint0_linear_2218_12374" x1="1.9531" y1="17.9977" x2="34.0541" y2="17.9977" gradientUnits="userSpaceOnUse">
<stop stop-color="#00A0E5"/>
<stop offset="1" stop-color="#0077C3"/>
</linearGradient>
<clipPath id="clip0_2218_12374">
<rect width="36" height="36" fill="white"/>
</clipPath>
</defs>
</svg>
