<svg width="20" height="20" viewBox="0 0 20 20" fill="none" xmlns="http://www.w3.org/2000/svg">
<path d="M6.30795 13.6921H2V17.9998H6.30795V13.6921Z" stroke="#0A0D12" stroke-width="1.5" stroke-linejoin="round"/>
<path d="M17.9994 2H13.6914V6.30771H17.9994V2Z" stroke="#0A0D12" stroke-width="1.5" stroke-linejoin="round"/>
<path d="M6.30795 2H2V6.30771H6.30795V2Z" stroke="#0A0D12" stroke-width="1.5" stroke-linejoin="round"/>
<path d="M10.3068 2H9.69141V2.61539H10.3068V2Z" stroke="#0A0D12" stroke-width="1.5" stroke-linejoin="round"/>
<path d="M10.3068 5.84619H9.69141V6.46158H10.3068V5.84619Z" stroke="#0A0D12" stroke-width="1.5" stroke-linejoin="round"/>
<path d="M6.46308 9.69238H5.84766V10.3078H6.46308V9.69238Z" stroke="#0A0D12" stroke-width="1.5" stroke-linejoin="round"/>
<path d="M10.3068 13.5383H9.69141V14.1537H10.3068V13.5383Z" stroke="#0A0D12" stroke-width="1.5" stroke-linejoin="round"/>
<path d="M10.3068 17.3845H9.69141V17.9999H10.3068V17.3845Z" stroke="#0A0D12" stroke-width="1.5" stroke-linejoin="round"/>
<path d="M2.61542 9.69214H2V10.3075H2.61542V9.69214Z" stroke="#0A0D12" stroke-width="1.5" stroke-linejoin="round"/>
<path d="M10.3068 9.69214H9.69141V10.3075H10.3068V9.69214Z" stroke="#0A0D12" stroke-width="1.5" stroke-linejoin="round"/>
<path d="M14.1584 9.69214H13.543V10.3075H14.1584V9.69214Z" stroke="#0A0D12" stroke-width="1.5" stroke-linejoin="round"/>
<path d="M17.9982 9.69238H17.3828V10.3078H17.9982V9.69238Z" stroke="#0A0D12" stroke-width="1.5" stroke-linejoin="round"/>
<path d="M14.1584 13.5383H13.543V14.1537H14.1584V13.5383Z" stroke="#0A0D12" stroke-width="1.5" stroke-linejoin="round"/>
<path d="M17.9982 13.5386H17.3828V14.154H17.9982V13.5386Z" stroke="#0A0D12" stroke-width="1.5" stroke-linejoin="round"/>
<path d="M14.1584 17.3845H13.543V17.9999H14.1584V17.3845Z" stroke="#0A0D12" stroke-width="1.5" stroke-linejoin="round"/>
<path d="M17.9982 17.3843H17.3828V17.9997H17.9982V17.3843Z" stroke="#0A0D12" stroke-width="1.5" stroke-linejoin="round"/>
</svg>
