<svg width="16" height="16" viewBox="0 0 16 16" fill="none" xmlns="http://www.w3.org/2000/svg">
<path d="M6.21974 11.2016V4.80156H9.27429C9.67935 4.80156 10.0678 4.94605 10.3542 5.20325C10.6407 5.46044 10.8016 5.80927 10.8016 6.17299C10.8016 6.53672 10.6407 6.88555 10.3542 7.14274C10.0678 7.39993 9.67935 7.54442 9.27429 7.54442H5.20156M9.27429 9.37299H5.20156M14.4016 8.00156C14.4016 11.5362 11.5362 14.4016 8.00156 14.4016C4.46694 14.4016 1.60156 11.5362 1.60156 8.00156C1.60156 4.46694 4.46694 1.60156 8.00156 1.60156C11.5362 1.60156 14.4016 4.46694 14.4016 8.00156Z" stroke="#0A0D12" stroke-width="1.2" stroke-linecap="round" stroke-linejoin="round"/>
</svg>
