<svg width="20" height="20" viewBox="0 0 20 20" fill="none" xmlns="http://www.w3.org/2000/svg">
<path d="M3 4.91797L5.1798 8.81421V11.1908L3.00255 15.0794L3 4.91797Z" fill="#5B57A2"/>
<path d="M11.3672 7.39641L13.4098 6.14451L17.5899 6.14062L11.3672 9.95274V7.39641Z" fill="#D90751"/>
<path d="M11.3609 4.89506L11.3724 10.0535L9.1875 8.71106V1L11.3609 4.89506Z" fill="#FAB718"/>
<path d="M17.5951 6.14066L13.4148 6.14454L11.3609 4.89506L9.1875 1L17.5951 6.14066Z" fill="#ED6F26"/>
<path d="M11.3724 15.101V12.5982L9.1875 11.2812L9.18869 18.9999L11.3724 15.101Z" fill="#63B22F"/>
<path d="M13.407 13.8605L5.1798 8.81421L3 4.91797L17.5834 13.8554L13.407 13.8605Z" fill="#1487C9"/>
<path d="M9.1875 19L11.3709 15.1011L13.4084 13.8605L17.5848 13.8555L9.1875 19Z" fill="#017F36"/>
<path d="M3 15.0793L9.19995 11.2813L7.11555 10.0024L5.17725 11.1908L3 15.0793Z" fill="#984995"/>
</svg>
