<svg width="28" height="26" viewBox="0 0 28 26" fill="none" xmlns="http://www.w3.org/2000/svg">
<path d="M16.3623 8.45117C16.6666 9.32666 17.4519 9.93782 18.3633 10.0273L18.5469 10.0381L25.7402 10.1846L20.0068 14.5322C19.2684 15.0921 18.9296 16.0276 19.126 16.9219L19.1729 17.1006L21.2549 23.9863L15.3496 19.8779L15.1953 19.7783C14.4579 19.3457 13.5421 19.3457 12.8047 19.7783L12.6504 19.8779L6.74414 23.9863L8.82715 17.1006C9.09548 16.2136 8.82011 15.2576 8.13574 14.6494L7.99316 14.5322L2.25879 10.1846L9.45312 10.0381C10.3797 10.0192 11.2035 9.46203 11.5703 8.62305L11.6377 8.45117L14 1.65332L16.3623 8.45117Z" stroke="#FEB273" stroke-width="2.4"/>
</svg>
