<svg width="36" height="36" viewBox="0 0 36 36" fill="none" xmlns="http://www.w3.org/2000/svg">
<path d="M33.5194 5.89844H2.48491C1.28512 5.89844 0.3125 6.87106 0.3125 8.07085V27.9329C0.3125 29.1327 1.28512 30.1053 2.48491 30.1053H33.5194C34.7192 30.1053 35.6918 29.1327 35.6918 27.9329V8.07085C35.6918 6.87106 34.7192 5.89844 33.5194 5.89844Z" fill="white"/>
<path d="M15.9827 22.6135H13.5859L15.0851 13.9234H17.4818L15.9827 22.6135Z" fill="#15195A"/>
<path d="M24.6741 14.1356C24.2013 13.9598 23.4515 13.7656 22.5244 13.7656C20.1574 13.7656 18.4907 14.9489 18.4805 16.6406C18.4608 17.8887 19.6738 18.582 20.5811 18.9982C21.5083 19.4235 21.8236 19.701 21.8236 20.0801C21.8141 20.6623 21.0743 20.9306 20.3842 20.9306C19.4273 20.9306 18.9146 20.7923 18.1354 20.4684L17.8198 20.3295L17.4844 22.2802C18.0465 22.5203 19.0822 22.7334 20.1574 22.7428C22.6723 22.7428 24.3096 21.5778 24.329 19.775C24.3385 18.7858 23.698 18.0277 22.3171 17.4083C21.4788 17.0107 20.9655 16.7426 20.9655 16.3358C20.9753 15.9659 21.3997 15.5871 22.346 15.5871C23.1251 15.5685 23.6977 15.7441 24.1313 15.9199L24.3481 16.0121L24.6741 14.1356Z" fill="#15195A"/>
<path fill-rule="evenodd" clip-rule="evenodd" d="M28.9613 13.9234H30.8151L32.7488 22.6134H30.5296C30.5296 22.6134 30.3124 21.6149 30.2436 21.3098H27.1663C27.0773 21.5408 26.6633 22.6134 26.6633 22.6134H24.1484L27.7085 14.6444C27.9552 14.0804 28.3895 13.9234 28.9613 13.9234ZM28.8135 17.1035C28.8135 17.1035 28.054 19.0356 27.8566 19.5349H29.8489C29.7503 19.1004 29.2964 17.0203 29.2964 17.0203L29.1289 16.2715C29.0583 16.4643 28.9564 16.7294 28.8875 16.9082C28.8409 17.0294 28.8095 17.111 28.8135 17.1035Z" fill="#15195A"/>
<path fill-rule="evenodd" clip-rule="evenodd" d="M3.20351 13.9233H7.05967C7.58242 13.9416 8.00653 14.0987 8.14451 14.6538L8.98257 18.6465L9.23929 19.8491L11.5865 13.9233H14.1209L10.3536 22.6042H7.81909L5.68284 15.0532C4.94577 14.6492 4.10457 14.3243 3.16406 14.0989L3.20351 13.9233Z" fill="#15195A"/>
</svg>
